HIERARCHY
ROOT hip
{
  OFFSET 71.8805 69.1507 180.771
  CHANNELS 6 Xposition Yposition Zposition Zrotation Xrotation Yrotation
  JOINT abdomen
  {
    OFFSET 0 20.6881 -0.73152
    CHANNELS 3 Zrotation Xrotation Yrotation
    JOINT chest
    {
      OFFSET 0 11.7043 -0.48768
      CHANNELS 3 Zrotation Xrotation Yrotation
      JOINT neck
      {
        OFFSET 0 22.1894 -2.19456
        CHANNELS 3 Zrotation Xrotation Yrotation
        JOINT head
        {
          OFFSET -0.24384 7.07133 1.2192
          CHANNELS 3 Zrotation Xrotation Yrotation
          JOINT leftEye
          {
            OFFSET 4.14528 8.04674 8.04672
            CHANNELS 3 Zrotation Xrotation Yrotation
            End Site
            {
              OFFSET 1 0 0
            }
          }
          JOINT rightEye
          {
            OFFSET -3.6576 8.04674 8.04672
            CHANNELS 3 Zrotation Xrotation Yrotation
            End Site
            {
              OFFSET 1 0 0
            }
          }
        }
      }
      JOINT rCollar
      {
        OFFSET -2.68224 19.2634 -4.8768
        CHANNELS 3 Zrotation Xrotation Yrotation
        JOINT rShldr
        {
          OFFSET -8.77824 -1.95073 1.46304
          CHANNELS 3 Zrotation Xrotation Yrotation
          JOINT rForeArm
          {
            OFFSET -28.1742 -1.7115 0.48768
            CHANNELS 3 Zrotation Xrotation Yrotation
            JOINT rHand
            {
              OFFSET -22.5879 0.773209 7.07136
              CHANNELS 3 Zrotation Xrotation Yrotation
              JOINT rThumb1
              {
                OFFSET -1.2192 -0.487915 3.41376
                CHANNELS 3 Zrotation Xrotation Yrotation
                JOINT rThumb2
                {
                  OFFSET -3.37035 -0.52449 3.41376
                  CHANNELS 3 Zrotation Xrotation Yrotation
                  End Site
                  {
                    OFFSET -1.78271 -1.18214 1.43049
                  }
                }
              }
              JOINT rIndex1
              {
                OFFSET -7.75947 0.938293 5.60832
                CHANNELS 3 Zrotation Xrotation Yrotation
                JOINT rIndex2
                {
                  OFFSET -2.54057 -0.884171 1.56538
                  CHANNELS 3 Zrotation Xrotation Yrotation
                  End Site
                  {
                    OFFSET -1.62519 -0.234802 1.16502
                  }
                }
              }
              JOINT rMid1
              {
                OFFSET -8.24714 1.18213 3.41376
                CHANNELS 3 Zrotation Xrotation Yrotation
                JOINT rMid2
                {
                  OFFSET -3.10165 -0.590103 1.0647
                  CHANNELS 3 Zrotation Xrotation Yrotation
                  End Site
                  {
                    OFFSET -2.48547 -0.328903 0.83742
                  }
                }
              }
              JOINT rRing1
              {
                OFFSET -8.82822 0.546677 1.51678
                CHANNELS 3 Zrotation Xrotation Yrotation
                JOINT rRing2
                {
                  OFFSET -2.60934 -0.819778 -0.0198488
                  CHANNELS 3 Zrotation Xrotation Yrotation
                  End Site
                  {
                    OFFSET -2.33842 -0.294052 0.168128
                  }
                }
              }
              JOINT rPinky1
              {
                OFFSET -8.27202 -0.0477905 -0.4584
                CHANNELS 3 Zrotation Xrotation Yrotation
                JOINT rPinky2
                {
                  OFFSET -1.82734 -0.647385 -0.700984
                  CHANNELS 3 Zrotation Xrotation Yrotation
                  End Site
                  {
                    OFFSET -1.69225 -0.51767 -0.607171
                  }
                }
              }
            }
          }
        }
      }
      JOINT lCollar
      {
        OFFSET 2.68224 19.2634 -4.8768
        CHANNELS 3 Zrotation Xrotation Yrotation
        JOINT lShldr
        {
          OFFSET 8.77824 -1.95073 1.46304
          CHANNELS 3 Zrotation Xrotation Yrotation
          JOINT lForeArm
          {
            OFFSET 28.1742 -1.7115 0.48768
            CHANNELS 3 Zrotation Xrotation Yrotation
            JOINT lHand
            {
              OFFSET 22.5879 0.773209 7.07136
              CHANNELS 3 Zrotation Xrotation Yrotation
              JOINT lThumb1
              {
                OFFSET 1.2192 -0.487915 3.41376
                CHANNELS 3 Zrotation Xrotation Yrotation
                JOINT lThumb2
                {
                  OFFSET 3.37035 -0.52449 3.41376
                  CHANNELS 3 Zrotation Xrotation Yrotation
                  End Site
                  {
                    OFFSET 1.78271 -1.18214 1.43049
                  }
                }
              }
              JOINT lIndex1
              {
                OFFSET 7.75947 0.938293 5.60832
                CHANNELS 3 Zrotation Xrotation Yrotation
                JOINT lIndex2
                {
                  OFFSET 2.54057 -0.884171 1.56538
                  CHANNELS 3 Zrotation Xrotation Yrotation
                  End Site
                  {
                    OFFSET 1.62519 -0.234802 1.16502
                  }
                }
              }
              JOINT lMid1
              {
                OFFSET 8.24714 1.18213 3.41376
                CHANNELS 3 Zrotation Xrotation Yrotation
                JOINT lMid2
                {
                  OFFSET 3.10165 -0.590103 1.0647
                  CHANNELS 3 Zrotation Xrotation Yrotation
                  End Site
                  {
                    OFFSET 2.48547 -0.328903 0.83742
                  }
                }
              }
              JOINT lRing1
              {
                OFFSET 8.82822 0.546677 1.51678
                CHANNELS 3 Zrotation Xrotation Yrotation
                JOINT lRing2
                {
                  OFFSET 2.60934 -0.819778 -0.0198488
                  CHANNELS 3 Zrotation Xrotation Yrotation
                  End Site
                  {
                    OFFSET 2.33842 -0.294052 0.168128
                  }
                }
              }
              JOINT lPinky1
              {
                OFFSET 8.27202 -0.0477905 -0.4584
                CHANNELS 3 Zrotation Xrotation Yrotation
                JOINT lPinky2
                {
                  OFFSET 1.82734 -0.647385 -0.700984
                  CHANNELS 3 Zrotation Xrotation Yrotation
                  End Site
                  {
                    OFFSET 1.69225 -0.51767 -0.607171
                  }
                }
              }
            }
          }
        }
      }
    }
  }
  JOINT rButtock
  {
    OFFSET -8.77824 4.35084 1.2192
    CHANNELS 3 Zrotation Xrotation Yrotation
    JOINT rThigh
    {
      OFFSET 0 -1.70687 -2.19456
      CHANNELS 3 Zrotation Xrotation Yrotation
      JOINT rShin
      {
        OFFSET 0 -36.8199 0.73152
        CHANNELS 3 Zrotation Xrotation Yrotation
        JOINT rFoot
        {
          OFFSET 0.73152 -45.1104 -5.12064
          CHANNELS 3 Zrotation Xrotation Yrotation
          End Site
          {
            OFFSET -1.1221 -3.69964 12.103
          }
        }
      }
    }
  }
  JOINT lButtock
  {
    OFFSET 8.77824 4.35084 1.2192
    CHANNELS 3 Zrotation Xrotation Yrotation
    JOINT lThigh
    {
      OFFSET 0 -1.70687 -2.19456
      CHANNELS 3 Zrotation Xrotation Yrotation
      JOINT lShin
      {
        OFFSET 0 -36.8199 0.73152
        CHANNELS 3 Zrotation Xrotation Yrotation
        JOINT lFoot
        {
          OFFSET -0.73152 -45.1104 -5.12064
          CHANNELS 3 Zrotation Xrotation Yrotation
          End Site
          {
            OFFSET 1.1221 -3.69964 12.103
          }
        }
      }
    }
  }
}
MOTION
Frames:	9
Frame Time:	0.00833333
181.888 74.8733 43.4726 3.77247 13.8542 -65.5795 10.5564 8.21946 2.58295 0.208474 -3.29666 0.789066 -8.47812 1.79218 -1.88826 1.66061 -25.9264 -1.41982 -0 0 0 -0 0 0 -2.696e-013 -1.20885e-012 2.14756e-013 15.1751 40.7368 73.2145 -25.8658 -23.0952 56.2161 -0.122077 9.91362 1.40748 3.5505e-009 -1.40618e-008 8.33485e-012 6.13632e-009 -2.43945e-008 -2.2447e-011 3.5505e-009 -1.40618e-008 8.32948e-012 7.73091 5.47488 0.417314 3.55049e-009 -1.40618e-008 8.32987e-012 2.90554 0.965183 0.102902 3.5505e-009 -1.40618e-008 8.33548e-012 10.2786 0.731801 0.0259123 3.55049e-009 -1.40618e-008 8.3408e-012 2.22167 -0.733487 -0.20892 -2.69649e-013 -1.20884e-012 2.1451e-013 -55.3526 36.6346 -50.7976 24.9949 -21.0851 -52.9313 0.00906778 -2.70717 0.380757 -1.79426e-009 2.40379e-009 1.46801e-009 -3.10931e-009 4.15924e-009 2.54019e-009 -1.79426e-009 2.4038e-009 1.46802e-009 -7.73091 5.47488 -0.417314 -1.79426e-009 2.4038e-009 1.46801e-009 -2.90554 0.965183 -0.102902 -1.79426e-009 2.4038e-009 1.46802e-009 -10.2786 0.731801 -0.0259123 -1.79426e-009 2.4038e-009 1.46801e-009 -2.22167 -0.733487 0.20892 -2.03217e-016 0 -3.88251e-019 -7.0227 -5.78514 -1.81931 -0.181435 29.4382 0.520634 -3.24392 -5.27534 -19.727 2.03217e-016 0 3.88251e-019 37.7634 -51.3342 25.5994 0.18627 28.745 -0.02979 0.342764 2.7407 15.8281 
181.206 74.9086 44.2551 3.84664 14.1138 -65.1945 10.3531 8.0582 2.72449 0.195427 -3.31115 0.822702 -8.54691 1.85244 -2.00317 1.85077 -26.0156 -1.5966 -0 0 0 -0 0 0 -3.02362e-013 -1.59615e-012 1.86843e-013 15.4141 40.6812 73.1513 -25.9158 -23.2205 56.4194 -0.121988 9.91006 1.40697 4.58785e-009 -1.81753e-008 -1.33521e-011 7.92986e-009 -3.15318e-008 -6.95998e-011 4.58785e-009 -1.81753e-008 -1.3356e-011 7.73091 5.47488 0.417314 4.58784e-009 -1.81753e-008 -1.33538e-011 2.90554 0.965183 0.102902 4.58785e-009 -1.81753e-008 -1.33478e-011 10.2786 0.731801 0.0259123 4.58784e-009 -1.81753e-008 -1.33399e-011 2.22167 -0.733487 -0.20892 -3.02401e-013 -1.59614e-012 1.86564e-013 -55.1547 36.4006 -50.9151 25.0343 -21.1699 -53.0708 0.00875518 -2.66206 0.374402 -2.76354e-009 3.85463e-009 2.55802e-009 -4.78876e-009 6.67073e-009 4.42793e-009 -2.76354e-009 3.85464e-009 2.55803e-009 -7.73091 5.47488 -0.417314 -2.76354e-009 3.85464e-009 2.55803e-009 -2.90554 0.965183 -0.102902 -2.76354e-009 3.85464e-009 2.55803e-009 -10.2786 0.731801 -0.0259123 -2.76354e-009 3.85464e-009 2.55803e-009 -2.22167 -0.733487 0.20892 -2.03217e-016 0 -3.88251e-019 -6.9305 -5.16711 -1.4181 -0.178144 28.9337 0.496694 -2.88929 -4.1868 -19.8928 2.03217e-016 0 3.88251e-019 37.9474 -51.3722 26.1658 0.184517 28.4678 -0.0109549 0.317932 2.93337 16.1043 
180.523 74.9443 45.0581 3.91975 14.376 -64.7925 10.1421 7.9057 2.8508 0.187536 -3.32949 0.852485 -8.61737 1.91069 -2.12048 2.05626 -26.1136 -1.77369 -0 0 0 -0 0 0 -3.15635e-013 -1.79424e-012 1.49585e-013 15.7238 40.6384 73.0039 -25.9661 -23.348 56.6257 -0.121801 9.90259 1.40588 4.96687e-009 -1.95669e-008 2.00629e-011 8.58543e-009 -3.39475e-008 -1.50432e-011 4.96687e-009 -1.95669e-008 2.00598e-011 7.73091 5.47488 0.417314 4.96686e-009 -1.95669e-008 2.00629e-011 2.90554 0.965183 0.102902 4.96687e-009 -1.95669e-008 2.00693e-011 10.2786 0.731801 0.0259123 4.96686e-009 -1.95669e-008 2.00788e-011 2.22167 -0.733487 -0.20892 -3.15676e-013 -1.79423e-012 1.49287e-013 -54.9473 36.1415 -51.0384 25.0689 -21.2447 -53.1946 0.00816903 -2.57973 0.362805 -3.23394e-009 4.49923e-009 3.06286e-009 -5.60362e-009 7.78642e-009 5.30234e-009 -3.23394e-009 4.49924e-009 3.06287e-009 -7.73091 5.47488 -0.417314 -3.23393e-009 4.49924e-009 3.06286e-009 -2.90554 0.965183 -0.102902 -3.23393e-009 4.49924e-009 3.06287e-009 -10.2786 0.731801 -0.0259123 -3.23394e-009 4.49924e-009 3.06286e-009 -2.22167 -0.733487 0.20892 -2.03217e-016 0 -3.88251e-019 -6.83558 -4.59662 -1.01546 -0.175623 28.4887 0.47404 -2.50694 -3.04548 -20.0536 2.03217e-016 0 3.88251e-019 38.1043 -51.4356 26.7621 0.184424 28.3018 0.00377253 0.300163 3.09692 16.2988 
179.841 74.981 45.8794 3.99244 14.6408 -64.3747 9.92307 7.75974 2.96324 0.185064 -3.35176 0.878779 -8.68944 1.96593 -2.24015 2.27758 -26.2196 -1.95093 -0 0 0 -0 0 0 -3.01649e-013 -1.72945e-012 8.33067e-014 16.1082 40.6067 72.7673 -26.0171 -23.4787 56.8363 -0.121508 9.89081 1.40418 4.35068e-009 -1.68044e-008 1.56327e-010 7.52071e-009 -2.91577e-008 2.27207e-010 4.35068e-009 -1.68044e-008 1.56323e-010 7.73091 5.47488 0.417314 4.35067e-009 -1.68044e-008 1.56326e-010 2.90554 0.965183 0.102902 4.35068e-009 -1.68044e-008 1.56333e-010 10.2786 0.731801 0.0259123 4.35068e-009 -1.68044e-008 1.56343e-010 2.22167 -0.733487 -0.20892 -3.01715e-013 -1.72945e-012 8.30105e-014 -54.7305 35.8568 -51.1659 25.0992 -21.3104 -53.3033 0.00735158 -2.45315 0.344979 -2.93794e-009 3.88624e-009 2.6628e-009 -5.09033e-009 6.72482e-009 4.60977e-009 -2.93794e-009 3.88625e-009 2.66281e-009 -7.73091 5.47488 -0.417314 -2.93794e-009 3.88625e-009 2.66281e-009 -2.90554 0.965183 -0.102902 -2.93794e-009 3.88625e-009 2.66281e-009 -10.2786 0.731801 -0.0259123 -2.93794e-009 3.88625e-009 2.66281e-009 -2.22167 -0.733487 0.20892 -2.03217e-016 0 -3.88251e-019 -6.7373 -4.07024 -0.607289 -0.173611 28.0978 0.452477 -2.09277 -1.8398 -20.2138 2.03217e-016 0 3.88251e-019 38.2433 -51.5255 27.4091 0.186027 28.2556 0.0141084 0.290617 3.23262 16.4013 
179.159 75.0192 46.7182 4.06448 14.9091 -63.9418 9.69707 7.6186 3.06418 0.186988 -3.37828 0.902213 -8.76216 2.01931 -2.3625 2.51376 -26.3326 -2.1296 -0 0 0 -0 0 0 -2.72876e-013 -1.52224e-012 -3.04699e-015 16.5683 40.5837 72.4404 -26.0689 -23.6127 57.0526 -0.121173 9.87734 1.40223 3.11383e-009 -1.1387e-008 3.6663e-010 5.38319e-009 -1.97627e-008 6.03727e-010 3.11383e-009 -1.1387e-008 3.66625e-010 7.73091 5.47488 0.417314 3.11383e-009 -1.1387e-008 3.66627e-010 2.90554 0.965183 0.102902 3.11384e-009 -1.1387e-008 3.66633e-010 10.2786 0.731801 0.0259123 3.11383e-009 -1.1387e-008 3.66643e-010 2.22167 -0.733487 -0.20892 -2.7298e-013 -1.52225e-012 -3.32965e-015 -54.5017 35.5498 -51.2985 25.1255 -21.368 -53.3979 0.00638467 -2.28324 0.321059 -2.1855e-009 2.50435e-009 1.71682e-009 -3.78597e-009 4.33197e-009 2.97189e-009 -2.1855e-009 2.50436e-009 1.71683e-009 -7.73091 5.47488 -0.417314 -2.18549e-009 2.50436e-009 1.71683e-009 -2.90554 0.965183 -0.102902 -2.1855e-009 2.50436e-009 1.71683e-009 -10.2786 0.731801 -0.0259123 -2.1855e-009 2.50435e-009 1.71683e-009 -2.22167 -0.733487 0.20892 -2.03217e-016 0 -3.88251e-019 -6.63629 -3.58302 -0.193039 -0.171939 27.7525 0.431725 -1.64491 -0.565862 -20.375 2.03217e-016 0 3.88251e-019 38.3673 -51.6383 28.1075 0.188959 28.3267 0.0202699 0.289527 3.34265 16.4143 
178.479 75.0584 47.5743 4.13404 15.1788 -63.4898 9.46353 7.48857 3.14888 0.193489 -3.40862 0.921498 -8.83643 2.07223 -2.48734 2.76398 -26.4551 -2.30927 -0 0 0 -0 0 0 -2.37443e-013 -1.24796e-012 -7.19123e-014 17.0943 40.5711 72.0342 -26.1205 -23.7476 57.2705 -0.12077 9.86107 1.39987 1.7334e-009 -5.41278e-009 5.65148e-010 2.99744e-009 -9.40157e-009 9.6112e-010 1.73341e-009 -5.41277e-009 5.65142e-010 7.73091 5.47488 0.417314 1.7334e-009 -5.41278e-009 5.65143e-010 2.90554 0.965183 0.102902 1.73341e-009 -5.41277e-009 5.65149e-010 10.2786 0.731801 0.0259123 1.7334e-009 -5.41278e-009 5.65158e-010 2.22167 -0.733487 -0.20892 -2.37586e-013 -1.24799e-012 -7.21767e-014 -54.2636 35.2199 -51.4398 25.1473 -21.4157 -53.4759 0.00535541 -2.08514 0.293178 -1.34604e-009 1.00254e-009 6.75049e-010 -2.33078e-009 1.73168e-009 1.16813e-009 -1.34604e-009 1.00255e-009 6.75056e-010 -7.73091 5.47488 -0.417314 -1.34604e-009 1.00255e-009 6.75055e-010 -2.90554 0.965183 -0.102902 -1.34604e-009 1.00255e-009 6.75058e-010 -10.2786 0.731801 -0.0259123 -1.34604e-009 1.00254e-009 6.7505e-010 -2.22167 -0.733487 0.20892 -2.03217e-016 0 -3.88251e-019 -6.52976 -3.14675 0.218493 -0.170913 27.471 0.41218 -1.17362 0.74722 -20.5317 2.03217e-016 0 3.88251e-019 38.4599 -51.7715 28.8154 0.193012 28.4978 0.0229245 0.297443 3.42363 16.3587 
177.8 75.0997 48.447 4.19931 15.4474 -63.0143 9.22185 7.37592 3.2126 0.204747 -3.44234 0.935341 -8.91314 2.12609 -2.6145 3.02738 -26.5896 -2.48953 -0 0 0 -0 0 0 -2.0348e-013 -9.81979e-013 -8.57259e-014 17.6763 40.5702 71.5595 -26.171 -23.8813 57.4862 -0.120269 9.84091 1.39695 6.86478e-010 -9.7956e-010 6.66059e-010 1.18804e-009 -1.71294e-009 1.14599e-009 6.86483e-010 -9.79542e-010 6.66053e-010 7.73091 5.47488 0.417314 6.86477e-010 -9.79554e-010 6.66053e-010 2.90554 0.965183 0.102902 6.86483e-010 -9.79546e-010 6.66059e-010 10.2786 0.731801 0.0259123 6.86475e-010 -9.79555e-010 6.66069e-010 2.22167 -0.733487 -0.20892 -2.03644e-013 -9.82015e-013 -8.59744e-014 -54.0192 34.8667 -51.5935 25.1636 -21.4516 -53.5351 0.00430895 -1.87398 0.263465 -7.89003e-010 2.98177e-011 -1.23978e-011 -1.36499e-009 4.77719e-011 -2.20818e-011 -7.89005e-010 2.98209e-011 -1.23914e-011 -7.73091 5.47488 -0.417314 -7.89003e-010 2.98194e-011 -1.23914e-011 -2.90554 0.965183 -0.102902 -7.89011e-010 2.98185e-011 -1.23891e-011 -10.2786 0.731801 -0.0259123 -7.89005e-010 2.98153e-011 -1.23978e-011 -2.22167 -0.733487 0.20892 -2.03217e-016 0 -3.88251e-019 -6.41433 -2.77323 0.618514 -0.170807 27.2719 0.394224 -0.690057 2.07069 -20.6778 2.03217e-016 0 3.88251e-019 38.5041 -51.9237 29.4904 0.198019 28.7513 0.02272 0.314559 3.47206 16.2555 
177.124 75.143 49.3349 4.25928 15.7149 -62.5146 8.97224 7.28018 3.25502 0.220941 -3.47989 0.943688 -8.99176 2.18306 -2.74365 3.30517 -26.7392 -2.66994 -0 0 0 -0 0 0 -1.57752e-013 -6.85068e-013 -1.1248e-014 18.3197 40.58 71.0095 -26.2205 -24.0138 57.6996 -0.119639 9.81544 1.39326 -1.13336e-011 1.89145e-009 6.38969e-010 -1.77714e-011 3.26513e-009 1.10545e-009 -1.13281e-011 1.89147e-009 6.38962e-010 7.73091 5.47488 0.417314 -1.1335e-011 1.89146e-009 6.38963e-010 2.90554 0.965183 0.102902 -1.13307e-011 1.89146e-009 6.3897e-010 10.2786 0.731801 0.0259123 -1.1337e-011 1.89146e-009 6.38981e-010 2.22167 -0.733487 -0.20892 -1.5791e-013 -6.851e-013 -1.14829e-014 -53.7686 34.4893 -51.7574 25.1748 -21.4762 -53.5759 0.00326139 -1.64476 0.231219 -6.93773e-010 -7.92618e-011 -1.34369e-010 -1.19906e-009 -1.40158e-010 -2.32898e-010 -6.93775e-010 -7.92596e-011 -1.34365e-010 -7.73091 5.47488 -0.417314 -6.93773e-010 -7.92612e-011 -1.34363e-010 -2.90554 0.965183 -0.102902 -6.93782e-010 -7.92624e-011 -1.34362e-010 -10.2786 0.731801 -0.0259123 -6.93775e-010 -7.92654e-011 -1.3437e-010 -2.22167 -0.733487 0.20892 -2.03217e-016 0 -3.88251e-019 -6.28645 -2.45774 1.01145 -0.171407 27.1523 0.377634 -0.188228 3.42247 -20.8159 2.03217e-016 0 3.88251e-019 38.5042 -52.0992 30.1436 0.204234 29.0976 0.0192116 0.342473 3.48341 16.098 
176.451 75.1888 50.2366 4.31489 15.9814 -61.9923 8.71463 7.1987 3.27839 0.241922 -3.52132 0.947131 -9.07204 2.2418 -2.87498 3.5971 -26.9017 -2.85096 -0 0 0 -0 0 0 -1.01058e-013 -3.36806e-013 1.23747e-013 19.0275 40.596 70.3798 -26.2694 -24.1462 57.9125 -0.118904 9.78563 1.38895 -5.77271e-010 4.13973e-009 5.32154e-010 -9.95538e-010 7.16253e-009 9.25299e-010 -5.77266e-010 4.13974e-009 5.32146e-010 7.73091 5.47488 0.417314 -5.77273e-010 4.13973e-009 5.32148e-010 2.90554 0.965183 0.102902 -5.7727e-010 4.13974e-009 5.32155e-010 10.2786 0.731801 0.0259123 -5.77274e-010 4.13973e-009 5.32168e-010 2.22167 -0.733487 -0.20892 -1.01193e-013 -3.36826e-013 1.23526e-013 -53.511 34.0884 -51.9309 25.1812 -21.4902 -53.5991 0.00231183 -1.39243 0.195729 -8.3636e-010 2.75342e-010 3.86966e-011 -1.44494e-009 4.7522e-010 6.73184e-011 -8.36362e-010 2.75343e-010 3.86988e-011 -7.73091 5.47488 -0.417314 -8.3636e-010 2.75342e-010 3.87012e-011 -2.90554 0.965183 -0.102902 -8.3637e-010 2.75341e-010 3.87011e-011 -10.2786 0.731801 -0.0259123 -8.36362e-010 2.75338e-010 3.8695e-011 -2.22167 -0.733487 0.20892 -2.03217e-016 0 -3.88251e-019 -6.14656 -2.1967 1.39992 -0.172504 27.105 0.362232 0.334038 4.80981 -20.9499 2.03217e-016 0 3.88251e-019 38.4684 -52.2973 30.7923 0.211763 29.5411 0.0122041 0.380366 3.46066 15.8791 
